ffmpeg started on 2016-12-08 at 15:05:37
Report written to "Output/x264/results/ffmpeg/sintelveryslow3500k.log"
Command line:
Tools/ffmpeg/ffmpeg -benchmark -y -i Input/y4m/sintel.y4m -c:v libx264 -preset veryslow -b:v 3500k -an Output/x264/encoded/sintelveryslow3500k.mkv
ffmpeg version N-82227-gdb23fde Copyright (c) 2000-2016 the FFmpeg developers
  built with gcc 5.4.0 (Ubuntu 5.4.0-6ubuntu1~16.04.2) 20160609
  configuration: --prefix=/home/jaroslav/ffmpeg_build --pkg-config-flags=--static --extra-cflags=-I/home/jaroslav/ffmpeg_build/include --extra-ldflags=-L/home/jaroslav/ffmpeg_build/lib --bindir=/home/jaroslav/bin --enable-gpl --enable-libass --enable-libfdk-aac --enable-libfreetype --enable-libmp3lame --enable-libopus --enable-libtheora --enable-libvorbis --enable-libvpx --enable-libx264 --enable-libx265 --enable-nvenc --enable-libmfx --enable-libxvid --enable-libgsm --enable-libopencore-amrnb --enable-version3 --enable-nonfree
  libavutil      55. 35.100 / 55. 35.100
  libavcodec     57. 66.101 / 57. 66.101
  libavformat    57. 57.100 / 57. 57.100
  libavdevice    57.  2.100 / 57.  2.100
  libavfilter     6. 66.100 /  6. 66.100
  libswscale      4.  3.100 /  4.  3.100
  libswresample   2.  4.100 /  2.  4.100
  libpostproc    54.  2.100 / 54.  2.100
Input #0, yuv4mpegpipe, from 'Input/y4m/sintel.y4m':
  Duration: 00:00:20.83, start: 0.000000, bitrate: 2057307 kb/s
    Stream #0:0: Video: rawvideo (I420 / 0x30323449), yuv420p(progressive), 4096x1744, SAR 1:1 DAR 256:109, 24 fps, 24 tbr, 24 tbn, 24 tbc
[libx264 @ 0x2bd51c0] using SAR=1/1
[libx264 @ 0x2bd51c0] DPB size (16 frames, 446464 mbs) > level limit (6 frames, 184320 mbs)
[libx264 @ 0x2bd51c0] using cpu capabilities: MMX2 SSE2Fast SSSE3 SSE4.2 AVX FMA3 AVX2 LZCNT BMI2
[libx264 @ 0x2bd51c0] profile High, level 5.2
[libx264 @ 0x2bd51c0] 264 - core 148 - H.264/MPEG-4 AVC codec - Copyleft 2003-2016 - http://www.videolan.org/x264.html - options: cabac=1 ref=16 deblock=1:0:0 analyse=0x3:0x133 me=umh subme=10 psy=1 psy_rd=1.00:0.00 mixed_ref=1 me_range=24 chroma_me=1 trellis=2 8x8dct=1 cqm=0 deadzone=21,11 fast_pskip=1 chroma_qp_offset=-2 threads=6 lookahead_threads=1 sliced_threads=0 nr=0 decimate=1 interlaced=0 bluray_compat=0 constrained_intra=0 bframes=8 b_pyramid=2 b_adapt=2 b_bias=0 direct=3 weightb=1 open_gop=0 weightp=2 keyint=250 keyint_min=24 scenecut=40 intra_refresh=0 rc_lookahead=60 rc=abr mbtree=1 bitrate=3500 ratetol=1.0 qcomp=0.60 qpmin=0 qpmax=69 qpstep=4 ip_ratio=1.40 aq=1:1.00
Output #0, matroska, to 'Output/x264/encoded/sintelveryslow3500k.mkv':
  Metadata:
    encoder         : Lavf57.57.100
    Stream #0:0: Video: h264 (libx264) (H264 / 0x34363248), yuv420p, 4096x1744 [SAR 1:1 DAR 256:109], q=-1--1, 3500 kb/s, 24 fps, 1k tbn, 24 tbc
    Metadata:
      encoder         : Lavc57.66.101 libx264
    Side data:
      cpb: bitrate max/min/avg: 0/0/3500000 buffer size: 0 vbv_delay: -1
Stream mapping:
  Stream #0:0 -> #0:0 (rawvideo (native) -> h264 (libx264))
Press [q] to stop, [?] for help
frame=   10 fps=0.0 q=0.0 size=       0kB time=00:00:00.00 bitrate=N/A speed=   0x    frame=   18 fps= 17 q=0.0 size=       0kB time=00:00:00.00 bitrate=N/A speed=   0x    frame=   26 fps= 17 q=0.0 size=       0kB time=00:00:00.00 bitrate=N/A speed=   0x    frame=   34 fps= 16 q=0.0 size=       0kB time=00:00:00.00 bitrate=N/A speed=   0x    frame=   42 fps= 16 q=0.0 size=       0kB time=00:00:00.00 bitrate=N/A speed=   0x    frame=   51 fps= 16 q=0.0 size=       0kB time=00:00:00.00 bitrate=N/A speed=   0x    frame=   59 fps= 15 q=0.0 size=       0kB time=00:00:00.00 bitrate=N/A speed=   0x    frame=   67 fps= 15 q=0.0 size=       0kB time=00:00:00.00 bitrate=N/A speed=   0x    frame=   71 fps=8.6 q=0.0 size=       0kB time=00:00:00.00 bitrate=N/A speed=   0x    frame=   72 fps=3.2 q=0.0 size=       0kB time=00:00:00.00 bitrate=N/A speed=   0x    frame=   76 fps=3.2 q=33.0 size=       1kB time=-00:00:00.08 bitrate=N/A speed=N/A    frame=   78 fps=3.2 q=43.0 size=       1kB time=00:00:00.00 bitrate=5888.0kbits/s speed=4.1e-05x    frame=   79 fps=3.1 q=39.0 size=       1kB time=00:00:00.04 bitrate= 136.9kbits/s speed=0.00171x    frame=   81 fps=3.1 q=45.0 size=       1kB time=00:00:00.12 bitrate=  46.7kbits/s speed=0.00484x    frame=   83 fps=3.1 q=51.0 size=       1kB time=00:00:00.20 bitrate=  28.2kbits/s speed=0.00777x    frame=   85 fps=3.1 q=51.0 size=       1kB time=00:00:00.29 bitrate=  20.1kbits/s speed=0.0106x    frame=   86 fps=2.9 q=51.0 size=       1kB time=00:00:00.33 bitrate=  17.6kbits/s speed=0.0114x    frame=   88 fps=2.9 q=51.0 size=       1kB time=00:00:00.41 bitrate=  14.1kbits/s speed=0.0139x    frame=   90 fps=2.9 q=50.0 size=       1kB time=00:00:00.50 bitrate=  11.8kbits/s speed=0.0162x    frame=   91 fps=2.8 q=51.0 size=       1kB time=00:00:00.54 bitrate=  10.8kbits/s speed=0.017x    frame=   92 fps=2.7 q=51.0 size=       1kB time=00:00:00.58 bitrate=  10.1kbits/s speed=0.0173x    frame=   93 fps=2.6 q=51.0 size=       1kB time=00:00:00.62 bitrate=   9.4kbits/s speed=0.0176x    frame=   95 fps=2.6 q=51.0 size=       1kB time=00:00:00.70 bitrate=   8.3kbits/s speed=0.0195x    frame=   96 fps=2.6 q=51.0 size=       1kB time=00:00:00.75 bitrate=   7.8kbits/s speed=0.0201x    frame=   97 fps=2.5 q=51.0 size=       1kB time=00:00:00.79 bitrate=   7.4kbits/s speed=0.0207x    frame=   98 fps=2.5 q=51.0 size=       1kB time=00:00:00.83 bitrate=   7.1kbits/s speed=0.021x    frame=   99 fps=2.4 q=50.0 size=       1kB time=00:00:00.87 bitrate=   6.7kbits/s speed=0.0211x    frame=  100 fps=2.4 q=50.0 size=       1kB time=00:00:00.91 bitrate=   6.4kbits/s speed=0.0218x    frame=  101 fps=2.3 q=50.0 size=       1kB time=00:00:00.95 bitrate=   6.1kbits/s speed=0.0221x    frame=  102 fps=2.3 q=50.0 size=       1kB time=00:00:01.00 bitrate=   5.9kbits/s speed=0.0227x    frame=  104 fps=2.3 q=50.0 size=       1kB time=00:00:01.08 bitrate=   5.4kbits/s speed=0.0243x    frame=  105 fps=2.3 q=50.0 size=       1kB time=00:00:01.12 bitrate=   5.2kbits/s speed=0.0243x    frame=  106 fps=2.3 q=50.0 size=       1kB time=00:00:01.16 bitrate=   5.0kbits/s speed=0.025x    frame=  107 fps=2.2 q=50.0 size=       1kB time=00:00:01.20 bitrate=   4.9kbits/s speed=0.0246x    frame=  108 fps=2.2 q=50.0 size=       1kB time=00:00:01.25 bitrate=   4.7kbits/s speed=0.0251x    frame=  109 fps=2.2 q=50.0 size=       1kB time=00:00:01.29 bitrate=   4.6kbits/s speed=0.0255x    frame=  110 fps=2.1 q=50.0 size=       1kB time=00:00:01.33 bitrate=   4.4kbits/s speed=0.026x    frame=  111 fps=2.1 q=50.0 size=       1kB time=00:00:01.37 bitrate=   4.3kbits/s speed=0.0265x    frame=  112 fps=2.1 q=50.0 size=       1kB time=00:00:01.41 bitrate=   4.2kbits/s speed=0.0266x    frame=  113 fps=2.1 q=49.0 size=       1kB time=00:00:01.45 bitrate=   4.0kbits/s speed=0.0267x    frame=  114 fps=2.1 q=49.0 size=       1kB time=00:00:01.50 bitrate=   3.9kbits/s speed=0.0271x    frame=  115 fps=2.1 q=49.0 size=       1kB time=00:00:01.54 bitrate=   3.8kbits/s speed=0.0275x    frame=  116 fps=2.0 q=49.0 size=       1kB time=00:00:01.58 bitrate=   3.7kbits/s speed=0.0277x    frame=  117 fps=2.0 q=49.0 size=       1kB time=00:00:01.62 bitrate=   3.6kbits/s speed=0.0281x    frame=  118 fps=2.0 q=49.0 size=       1kB time=00:00:01.66 bitrate=   3.5kbits/s speed=0.0286x    frame=  119 fps=2.0 q=49.0 size=       1kB time=00:00:01.70 bitrate=   3.4kbits/s speed=0.029x    frame=  120 fps=2.0 q=49.0 size=       1kB time=00:00:01.75 bitrate=   3.4kbits/s speed=0.0292x    frame=  121 fps=2.0 q=49.0 size=       1kB time=00:00:01.79 bitrate=   3.3kbits/s speed=0.0295x    frame=  122 fps=2.0 q=49.0 size=       1kB time=00:00:01.83 bitrate=   3.2kbits/s speed=0.0299x    frame=  123 fps=2.0 q=49.0 size=       1kB time=00:00:01.87 bitrate=   3.1kbits/s speed=0.0301x    frame=  125 fps=2.0 q=49.0 size=       1kB time=00:00:01.95 bitrate=   3.0kbits/s speed=0.0311x    frame=  126 fps=2.0 q=49.0 size=       1kB time=00:00:02.00 bitrate=   2.9kbits/s speed=0.0311x    frame=  127 fps=1.9 q=49.0 size=       1kB time=00:00:02.04 bitrate=   2.9kbits/s speed=0.0313x    frame=  128 fps=1.9 q=49.0 size=       1kB time=00:00:02.08 bitrate=   2.8kbits/s speed=0.0312x    frame=  129 fps=1.9 q=48.0 size=       1kB time=00:00:02.12 bitrate=   2.8kbits/s speed=0.0314x    frame=  130 fps=1.9 q=48.0 size=       1kB time=00:00:02.16 bitrate=   2.7kbits/s speed=0.0312x    frame=  131 fps=1.9 q=48.0 size=       1kB time=00:00:02.20 bitrate=   2.7kbits/s speed=0.0314x    frame=  132 fps=1.9 q=48.0 size=       1kB time=00:00:02.25 bitrate=   2.6kbits/s speed=0.0317x    frame=  133 fps=1.9 q=48.0 size=       1kB time=00:00:02.29 bitrate=   2.6kbits/s speed=0.0319x    frame=  134 fps=1.8 q=48.0 size=       1kB time=00:00:02.33 bitrate=   2.5kbits/s speed=0.0319x    frame=  135 fps=1.8 q=48.0 size=       1kB time=00:00:02.37 bitrate=   2.5kbits/s speed=0.032x    frame=  136 fps=1.8 q=48.0 size=       1kB time=00:00:02.41 bitrate=   2.4kbits/s speed=0.0319x    frame=  137 fps=1.8 q=48.0 size=       1kB time=00:00:02.45 bitrate=   2.4kbits/s speed=0.032x    frame=  138 fps=1.8 q=48.0 size=       1kB time=00:00:02.50 bitrate=   2.4kbits/s speed=0.0323x    frame=  139 fps=1.8 q=48.0 size=       1kB time=00:00:02.54 bitrate=   2.3kbits/s speed=0.0324x    frame=  140 fps=1.8 q=48.0 size=       1kB time=00:00:02.58 bitrate=   2.3kbits/s speed=0.0326x    frame=  141 fps=1.8 q=48.0 size=       1kB time=00:00:02.62 bitrate=   2.2kbits/s speed=0.0327x    frame=  142 fps=1.7 q=48.0 size=       1kB time=00:00:02.66 bitrate=   2.2kbits/s speed=0.0319x    frame=  143 fps=1.7 q=48.0 size=       1kB time=00:00:02.70 bitrate=   2.2kbits/s speed=0.0322x    frame=  144 fps=1.7 q=48.0 size=       1kB time=00:00:02.75 bitrate=   2.1kbits/s speed=0.0323x    frame=  145 fps=1.7 q=48.0 size=       1kB time=00:00:02.79 bitrate=   2.1kbits/s speed=0.0326x    frame=  146 fps=1.7 q=48.0 size=       1kB time=00:00:02.83 bitrate=   2.1kbits/s speed=0.0328x    frame=  147 fps=1.7 q=48.0 size=       1kB time=00:00:02.87 bitrate=   2.0kbits/s speed=0.0328x    frame=  148 fps=1.6 q=48.0 size=       1kB time=00:00:02.91 bitrate=   2.0kbits/s speed=0.0324x    frame=  149 fps=1.6 q=48.0 size=       1kB time=00:00:02.95 bitrate=   2.0kbits/s speed=0.0324x    frame=  151 fps=1.6 q=48.0 size=       1kB time=00:00:03.04 bitrate=   1.9kbits/s speed=0.0329x    frame=  152 fps=1.6 q=48.0 size=       1kB time=00:00:03.08 bitrate=   1.9kbits/s speed=0.0331x    frame=  153 fps=1.6 q=48.0 size=       1kB time=00:00:03.12 bitrate=   1.9kbits/s speed=0.0331x    frame=  154 fps=1.6 q=48.0 size=       1kB time=00:00:03.16 bitrate=   1.9kbits/s speed=0.0328x    frame=  155 fps=1.6 q=48.0 size=       1kB time=00:00:03.20 bitrate=   1.8kbits/s speed=0.0325x    frame=  156 fps=1.6 q=48.0 size=       1kB time=00:00:03.25 bitrate=   1.8kbits/s speed=0.0326x    frame=  157 fps=1.6 q=48.0 size=       1kB time=00:00:03.29 bitrate=   1.8kbits/s speed=0.0327x    frame=  158 fps=1.6 q=48.0 size=       1kB time=00:00:03.33 bitrate=   1.8kbits/s speed=0.0329x    frame=  159 fps=1.6 q=48.0 size=       1kB time=00:00:03.37 bitrate=   1.7kbits/s speed=0.033x    frame=  160 fps=1.5 q=48.0 size=       1kB time=00:00:03.41 bitrate=   1.7kbits/s speed=0.033x    frame=  161 fps=1.5 q=48.0 size=       1kB time=00:00:03.45 bitrate=   1.7kbits/s speed=0.0328x    frame=  162 fps=1.5 q=48.0 size=       1kB time=00:00:03.50 bitrate=   1.7kbits/s speed=0.0328x    frame=  163 fps=1.5 q=48.0 size=       1kB time=00:00:03.54 bitrate=   1.7kbits/s speed=0.0329x    frame=  164 fps=1.5 q=48.0 size=       1kB time=00:00:03.58 bitrate=   1.6kbits/s speed=0.0329x    frame=  165 fps=1.5 q=48.0 size=       1kB time=00:00:03.62 bitrate=   1.6kbits/s speed=0.033x    frame=  166 fps=1.5 q=48.0 size=       1kB time=00:00:03.66 bitrate=   1.6kbits/s speed=0.0331x    frame=  167 fps=1.5 q=48.0 size=       1kB time=00:00:03.70 bitrate=   1.6kbits/s speed=0.0331x    frame=  168 fps=1.5 q=48.0 size=       1kB time=00:00:03.75 bitrate=   1.6kbits/s speed=0.0332x    frame=  169 fps=1.5 q=48.0 size=       1kB time=00:00:03.79 bitrate=   1.6kbits/s speed=0.0333x    frame=  170 fps=1.5 q=48.0 size=       1kB time=00:00:03.83 bitrate=   1.5kbits/s speed=0.0334x    frame=  171 fps=1.5 q=48.0 size=       1kB time=00:00:03.87 bitrate=   1.5kbits/s speed=0.0333x    frame=  172 fps=1.5 q=48.0 size=       1kB time=00:00:03.91 bitrate=   1.5kbits/s speed=0.0332x    frame=  173 fps=1.5 q=48.0 size=       1kB time=00:00:03.95 bitrate=   1.5kbits/s speed=0.0334x    frame=  175 fps=1.5 q=48.0 size=       1kB time=00:00:04.04 bitrate=   1.5kbits/s speed=0.0337x    frame=  176 fps=1.5 q=48.0 size=       1kB time=00:00:04.08 bitrate=   1.4kbits/s speed=0.0337x    frame=  177 fps=1.5 q=48.0 size=       1kB time=00:00:04.12 bitrate=   1.4kbits/s speed=0.0339x    frame=  178 fps=1.4 q=48.0 size=       1kB time=00:00:04.16 bitrate=   1.4kbits/s speed=0.0336x    frame=  179 fps=1.4 q=48.0 size=       1kB time=00:00:04.20 bitrate=   1.4kbits/s speed=0.0338x    frame=  182 fps=1.4 q=47.0 size=       1kB time=00:00:04.33 bitrate=   1.4kbits/s speed=0.034x    frame=  184 fps=1.4 q=47.0 size=       1kB time=00:00:04.41 bitrate=   1.3kbits/s speed=0.0344x    frame=  185 fps=1.4 q=47.0 size=       1kB time=00:00:04.45 bitrate=   1.3kbits/s speed=0.0346x    frame=  186 fps=1.4 q=47.0 size=       1kB time=00:00:04.50 bitrate=   1.3kbits/s speed=0.0346x    frame=  188 fps=1.4 q=47.0 size=       1kB time=00:00:04.58 bitrate=   1.3kbits/s speed=0.0348x    frame=  189 fps=1.4 q=47.0 size=       1kB time=00:00:04.62 bitrate=   1.3kbits/s speed=0.0348x    frame=  191 fps=1.4 q=47.0 size=       1kB time=00:00:04.70 bitrate=   1.3kbits/s speed=0.0353x    frame=  192 fps=1.4 q=47.0 size=       1kB time=00:00:04.75 bitrate=   1.2kbits/s speed=0.0346x    frame=  193 fps=1.4 q=47.0 size=       1kB time=00:00:04.79 bitrate=   1.2kbits/s speed=0.0348x    frame=  195 fps=1.4 q=47.0 size=    2262kB time=00:00:04.87 bitrate=3801.1kbits/s speed=0.0353x    frame=  196 fps=1.4 q=47.0 size=    2262kB time=00:00:04.91 bitrate=3768.7kbits/s speed=0.0353x    frame=  197 fps=1.4 q=47.0 size=    2262kB time=00:00:04.95 bitrate=3737.5kbits/s speed=0.0354x    frame=  198 fps=1.4 q=47.0 size=    2262kB time=00:00:05.00 bitrate=3706.1kbits/s speed=0.0355x    frame=  199 fps=1.4 q=47.0 size=    2262kB time=00:00:05.04 bitrate=3675.2kbits/s speed=0.0353x    frame=  200 fps=1.4 q=47.0 size=    2262kB time=00:00:05.08 bitrate=3645.6kbits/s speed=0.0354x    frame=  201 fps=1.4 q=47.0 size=    2262kB time=00:00:05.12 bitrate=3615.7kbits/s speed=0.0355x    frame=  202 fps=1.4 q=47.0 size=    2262kB time=00:00:05.16 bitrate=3586.3kbits/s speed=0.0357x    frame=  203 fps=1.4 q=47.0 size=    2262kB time=00:00:05.20 bitrate=3558.1kbits/s speed=0.0357x    frame=  204 fps=1.4 q=47.0 size=    2262kB time=00:00:05.25 bitrate=3529.7kbits/s speed=0.0358x    frame=  205 fps=1.4 q=47.0 size=    2262kB time=00:00:05.29 bitrate=3501.7kbits/s speed=0.0358x    frame=  206 fps=1.4 q=47.0 size=    2262kB time=00:00:05.33 bitrate=3474.7kbits/s speed=0.0358x    frame=  207 fps=1.4 q=47.0 size=    2262kB time=00:00:05.37 bitrate=3447.6kbits/s speed=0.0359x    frame=  208 fps=1.4 q=47.0 size=    2262kB time=00:00:05.41 bitrate=3420.9kbits/s speed=0.0359x    frame=  210 fps=1.4 q=47.0 size=    2262kB time=00:00:05.50 bitrate=3369.2kbits/s speed=0.0362x    frame=  211 fps=1.4 q=47.0 size=    2262kB time=00:00:05.54 bitrate=3343.7kbits/s speed=0.0363x    frame=  212 fps=1.4 q=47.0 size=    2262kB time=00:00:05.58 bitrate=3319.2kbits/s speed=0.0365x    frame=  214 fps=1.4 q=47.0 size=    2262kB time=00:00:05.66 bitrate=3270.0kbits/s speed=0.0365x    frame=  215 fps=1.4 q=47.0 size=    2262kB time=00:00:05.70 bitrate=3246.5kbits/s speed=0.0367x    frame=  216 fps=1.4 q=47.0 size=    2262kB time=00:00:05.75 bitrate=3222.8kbits/s speed=0.0368x    frame=  217 fps=1.4 q=47.0 size=    2262kB time=00:00:05.79 bitrate=3199.4kbits/s speed=0.0369x    frame=  218 fps=1.4 q=47.0 size=    2262kB time=00:00:05.83 bitrate=3176.9kbits/s speed=0.037x    frame=  220 fps=1.4 q=47.0 size=    2262kB time=00:00:05.91 bitrate=3131.8kbits/s speed=0.0371x    frame=  221 fps=1.4 q=47.0 size=    2262kB time=00:00:05.95 bitrate=3110.3kbits/s speed=0.0371x    frame=  222 fps=1.4 q=47.0 size=    2262kB time=00:00:06.00 bitrate=3088.5kbits/s speed=0.0372x    frame=  223 fps=1.4 q=47.0 size=    2262kB time=00:00:06.04 bitrate=3067.1kbits/s speed=0.0373x    frame=  225 fps=1.4 q=47.0 size=    2262kB time=00:00:06.12 bitrate=3025.5kbits/s speed=0.0375x    frame=  227 fps=1.4 q=47.0 size=    2262kB time=00:00:06.20 bitrate=2985.1kbits/s speed=0.0376x    frame=  229 fps=1.4 q=47.0 size=    2262kB time=00:00:06.29 bitrate=2945.2kbits/s speed=0.0378x    frame=  231 fps=1.4 q=47.0 size=    2262kB time=00:00:06.37 bitrate=2906.9kbits/s speed=0.0381x    frame=  233 fps=1.4 q=47.0 size=    2262kB time=00:00:06.45 bitrate=2869.5kbits/s speed=0.0375x    frame=  235 fps=1.4 q=47.0 size=    2262kB time=00:00:06.54 bitrate=2832.7kbits/s speed=0.0378x    frame=  236 fps=1.4 q=47.0 size=    2262kB time=00:00:06.58 bitrate=2815.0kbits/s speed=0.0379x    frame=  237 fps=1.4 q=47.0 size=    2262kB time=00:00:06.62 bitrate=2797.2kbits/s speed=0.0379x    frame=  238 fps=1.4 q=47.0 size=    2262kB time=00:00:06.66 bitrate=2779.6kbits/s speed=0.038x    frame=  239 fps=1.3 q=47.0 size=    2262kB time=00:00:06.70 bitrate=2762.6kbits/s speed=0.0378x    frame=  240 fps=1.3 q=47.0 size=    2262kB time=00:00:06.75 bitrate=2745.4kbits/s speed=0.0379x    frame=  241 fps=1.3 q=47.0 size=    2262kB time=00:00:06.79 bitrate=2728.4kbits/s speed=0.0379x    frame=  242 fps=1.3 q=47.0 size=    2262kB time=00:00:06.83 bitrate=2712.1kbits/s speed=0.038x    frame=  243 fps=1.3 q=47.0 size=    2262kB time=00:00:06.87 bitrate=2695.5kbits/s speed=0.038x    frame=  244 fps=1.3 q=47.0 size=    2262kB time=00:00:06.91 bitrate=2679.1kbits/s speed=0.0381x    frame=  245 fps=1.3 q=47.0 size=    2262kB time=00:00:06.95 bitrate=2663.3kbits/s speed=0.038x    frame=  246 fps=1.3 q=47.0 size=    2262kB time=00:00:07.00 bitrate=2647.4kbits/s speed=0.0381x    frame=  247 fps=1.3 q=47.0 size=    2262kB time=00:00:07.04 bitrate=2631.6kbits/s speed=0.038x    frame=  248 fps=1.3 q=47.0 size=    2262kB time=00:00:07.08 bitrate=2616.4kbits/s speed=0.0381x    frame=  250 fps=1.3 q=47.0 size=    2262kB time=00:00:07.16 bitrate=2585.7kbits/s speed=0.0383x    frame=  251 fps=1.3 q=47.0 size=    2262kB time=00:00:07.20 bitrate=2571.0kbits/s speed=0.0381x    frame=  252 fps=1.3 q=47.0 size=    2262kB time=00:00:07.25 bitrate=2556.1kbits/s speed=0.0382x    frame=  253 fps=1.3 q=47.0 size=    2262kB time=00:00:07.29 bitrate=2541.4kbits/s speed=0.0381x    frame=  254 fps=1.3 q=47.0 size=    2262kB time=00:00:07.33 bitrate=2527.2kbits/s speed=0.038x    frame=  255 fps=1.3 q=47.0 size=    2262kB time=00:00:07.37 bitrate=2512.8kbits/s speed=0.0381x    frame=  256 fps=1.3 q=47.0 size=    2262kB time=00:00:07.41 bitrate=2498.5kbits/s speed=0.0381x    frame=  257 fps=1.3 q=47.0 size=    2262kB time=00:00:07.45 bitrate=2484.8kbits/s speed=0.0382x    frame=  258 fps=1.3 q=47.0 size=    2262kB time=00:00:07.50 bitrate=2470.9kbits/s speed=0.0383x    frame=  260 fps=1.3 q=47.0 size=    2262kB time=00:00:07.58 bitrate=2443.9kbits/s speed=0.0379x    frame=  262 fps=1.3 q=47.0 size=    2262kB time=00:00:07.66 bitrate=2417.1kbits/s speed=0.0382x    frame=  266 fps=1.3 q=46.0 size=    2262kB time=00:00:07.83 bitrate=2365.9kbits/s speed=0.0387x    frame=  267 fps=1.3 q=46.0 size=    2262kB time=00:00:07.87 bitrate=2353.3kbits/s speed=0.0384x    frame=  269 fps=1.3 q=46.0 size=    2262kB time=00:00:07.95 bitrate=2328.7kbits/s speed=0.0387x    frame=  271 fps=1.3 q=46.0 size=    2262kB time=00:00:08.04 bitrate=2304.4kbits/s speed=0.039x    frame=  272 fps=1.3 q=46.0 size=    2262kB time=00:00:08.08 bitrate=2292.7kbits/s speed=0.039x    frame=  273 fps=1.3 q=46.0 size=    2262kB time=00:00:08.12 bitrate=2280.9kbits/s speed=0.0388x    frame=  274 fps=1.3 q=46.0 size=    2262kB time=00:00:08.16 bitrate=2269.1kbits/s speed=0.0388x    frame=  275 fps=1.3 q=46.0 size=    2262kB time=00:00:08.20 bitrate=2257.8kbits/s speed=0.0389x    frame=  276 fps=1.3 q=46.0 size=    2262kB time=00:00:08.25 bitrate=2246.3kbits/s speed=0.0389x    frame=  277 fps=1.3 q=46.0 size=    2262kB time=00:00:08.29 bitrate=2234.9kbits/s speed=0.0389x    frame=  278 fps=1.3 q=46.0 size=    2262kB time=00:00:08.33 bitrate=2223.9kbits/s speed=0.039x    frame=  279 fps=1.3 q=46.0 size=    2262kB time=00:00:08.37 bitrate=2212.8kbits/s speed=0.039x    frame=  281 fps=1.3 q=46.0 size=    2262kB time=00:00:08.45 bitrate=2191.1kbits/s speed=0.0392x    frame=  282 fps=1.3 q=46.0 size=    2262kB time=00:00:08.50 bitrate=2180.2kbits/s speed=0.0392x    frame=  283 fps=1.3 q=46.0 size=    2262kB time=00:00:08.54 bitrate=2169.5kbits/s speed=0.0393x    frame=  284 fps=1.3 q=46.0 size=    2262kB time=00:00:08.58 bitrate=2159.2kbits/s speed=0.0392x    frame=  286 fps=1.3 q=46.0 size=    2262kB time=00:00:08.66 bitrate=2138.2kbits/s speed=0.0394x    frame=  289 fps=1.3 q=46.0 size=    2262kB time=00:00:08.79 bitrate=2107.8kbits/s speed=0.0397x    frame=  290 fps=1.3 q=46.0 size=    2262kB time=00:00:08.83 bitrate=2098.1kbits/s speed=0.0398x    frame=  291 fps=1.3 q=46.0 size=    2262kB time=00:00:08.87 bitrate=2088.1kbits/s speed=0.0399x    frame=  292 fps=1.3 q=46.0 size=    2262kB time=00:00:08.91 bitrate=2078.3kbits/s speed=0.0398x    frame=  294 fps=1.3 q=46.0 size=    2262kB time=00:00:09.00 bitrate=2059.1kbits/s speed=0.04x    frame=  295 fps=1.3 q=46.0 size=    2262kB time=00:00:09.04 bitrate=2049.6kbits/s speed=0.04x    frame=  296 fps=1.3 q=46.0 size=    2262kB time=00:00:09.08 bitrate=2040.3kbits/s speed=0.0401x    frame=  298 fps=1.3 q=46.0 size=    2262kB time=00:00:09.16 bitrate=2021.6kbits/s speed=0.04x    frame=  299 fps=1.3 q=46.0 size=    2262kB time=00:00:09.20 bitrate=2012.6kbits/s speed=0.0401x    frame=  302 fps=1.3 q=46.0 size=    2262kB time=00:00:09.33 bitrate=1985.7kbits/s speed=0.0404x    frame=  303 fps=1.3 q=46.0 size=    2262kB time=00:00:09.37 bitrate=1976.8kbits/s speed=0.0405x    frame=  304 fps=1.3 q=46.0 size=    2262kB time=00:00:09.41 bitrate=1968.0kbits/s speed=0.0405x    frame=  305 fps=1.3 q=46.0 size=    2262kB time=00:00:09.45 bitrate=1959.4kbits/s speed=0.0405x    frame=  309 fps=1.3 q=45.0 size=    2262kB time=00:00:09.62 bitrate=1925.4kbits/s speed=0.0409x    frame=  310 fps=1.3 q=45.0 size=    2262kB time=00:00:09.66 bitrate=1917.1kbits/s speed=0.0409x    frame=  312 fps=1.3 q=45.0 size=    2262kB time=00:00:09.75 bitrate=1900.8kbits/s speed=0.0409x    frame=  314 fps=1.3 q=45.0 size=    2262kB time=00:00:09.83 bitrate=1884.7kbits/s speed=0.0411x    frame=  318 fps=1.3 q=45.0 size=    4101kB time=00:00:10.00 bitrate=3359.2kbits/s speed=0.0416x    frame=  319 fps=1.3 q=45.0 size=    4101kB time=00:00:10.04 bitrate=3345.1kbits/s speed=0.0416x    frame=  320 fps=1.3 q=45.0 size=    4101kB time=00:00:10.08 bitrate=3331.5kbits/s speed=0.0417x    frame=  321 fps=1.3 q=43.0 size=    4101kB time=00:00:10.12 bitrate=3317.7kbits/s speed=0.0416x    frame=  324 fps=1.3 q=45.0 size=    4101kB time=00:00:10.25 bitrate=3277.2kbits/s speed=0.0419x    frame=  326 fps=1.3 q=45.0 size=    4204kB time=00:00:10.33 bitrate=3332.7kbits/s speed=0.0421x    frame=  329 fps=1.3 q=45.0 size=    4204kB time=00:00:10.45 bitrate=3292.9kbits/s speed=0.0424x    frame=  334 fps=1.4 q=45.0 size=    4204kB time=00:00:10.66 bitrate=3228.4kbits/s speed=0.0431x    frame=  336 fps=1.4 q=42.0 size=    4204kB time=00:00:10.75 bitrate=3203.5kbits/s speed=0.0434x    frame=  338 fps=1.4 q=45.0 size=    4204kB time=00:00:10.83 bitrate=3178.9kbits/s speed=0.0436x    frame=  341 fps=1.4 q=45.0 size=    4204kB time=00:00:10.95 bitrate=3142.7kbits/s speed=0.0439x    frame=  343 fps=1.4 q=45.0 size=    4204kB time=00:00:11.04 bitrate=3118.8kbits/s speed=0.0441x    frame=  345 fps=1.4 q=45.0 size=    4204kB time=00:00:11.12 bitrate=3095.5kbits/s speed=0.0443x    frame=  346 fps=1.4 q=45.0 size=    4204kB time=00:00:11.16 bitrate=3083.9kbits/s speed=0.0442x    frame=  349 fps=1.4 q=44.0 size=    4204kB time=00:00:11.29 bitrate=3049.7kbits/s speed=0.0445x    frame=  350 fps=1.4 q=44.0 size=    4204kB time=00:00:11.33 bitrate=3038.7kbits/s speed=0.0445x    frame=  353 fps=1.4 q=44.0 size=    4204kB time=00:00:11.45 bitrate=3005.5kbits/s speed=0.0447x    frame=  354 fps=1.4 q=44.0 size=    4204kB time=00:00:11.50 bitrate=2994.6kbits/s speed=0.0447x    frame=  357 fps=1.4 q=44.0 size=    4204kB time=00:00:11.62 bitrate=2962.4kbits/s speed=0.045x    frame=  358 fps=1.4 q=44.0 size=    4204kB time=00:00:11.66 bitrate=2951.7kbits/s speed=0.0451x    frame=  360 fps=1.4 q=44.0 size=    4204kB time=00:00:11.75 bitrate=2930.9kbits/s speed=0.045x    frame=  362 fps=1.4 q=44.0 size=    4204kB time=00:00:11.83 bitrate=2910.3kbits/s speed=0.0452x    frame=  366 fps=1.4 q=44.0 size=    4204kB time=00:00:12.00 bitrate=2869.8kbits/s speed=0.0456x    frame=  368 fps=1.4 q=44.0 size=    4204kB time=00:00:12.08 bitrate=2850.1kbits/s speed=0.0457x    frame=  369 fps=1.4 q=44.0 size=    4204kB time=00:00:12.12 bitrate=2840.2kbits/s speed=0.0457x    frame=  372 fps=1.4 q=44.0 size=    4204kB time=00:00:12.25 bitrate=2811.2kbits/s speed=0.046x    frame=  374 fps=1.4 q=44.0 size=    4204kB time=00:00:12.33 bitrate=2792.3kbits/s speed=0.0463x    frame=  375 fps=1.4 q=44.0 size=    4204kB time=00:00:12.37 bitrate=2782.9kbits/s speed=0.0463x    frame=  376 fps=1.4 q=43.0 size=    4204kB time=00:00:12.41 bitrate=2773.4kbits/s speed=0.0462x    frame=  379 fps=1.4 q=44.0 size=    4204kB time=00:00:12.54 bitrate=2745.8kbits/s speed=0.0466x    frame=  381 fps=1.4 q=43.0 size=    4204kB time=00:00:12.62 bitrate=2727.7kbits/s speed=0.0468x    frame=  382 fps=1.4 q=43.0 size=    4204kB time=00:00:12.66 bitrate=2718.7kbits/s speed=0.0467x    frame=  385 fps=1.4 q=43.0 size=    4204kB time=00:00:12.79 bitrate=2692.1kbits/s speed=0.0471x    frame=  386 fps=1.4 q=43.0 size=    4204kB time=00:00:12.83 bitrate=2683.5kbits/s speed=0.0471x    frame=  388 fps=1.4 q=43.0 size=    4204kB time=00:00:12.91 bitrate=2666.1kbits/s speed=0.0473x    frame=  389 fps=1.4 q=43.0 size=    4204kB time=00:00:12.95 bitrate=2657.7kbits/s speed=0.0473x    frame=  392 fps=1.4 q=43.0 size=    4204kB time=00:00:13.08 bitrate=2632.3kbits/s speed=0.0476x    frame=  393 fps=1.4 q=42.0 size=    4204kB time=00:00:13.12 bitrate=2623.8kbits/s speed=0.0476x    frame=  394 fps=1.4 q=43.0 size=    4204kB time=00:00:13.16 bitrate=2615.5kbits/s speed=0.0476x    frame=  398 fps=1.4 q=42.0 size=    4204kB time=00:00:13.33 bitrate=2582.9kbits/s speed=0.0481x    frame=  399 fps=1.4 q=42.0 size=    4204kB time=00:00:13.37 bitrate=2574.8kbits/s speed=0.0481x    frame=  400 fps=1.4 q=42.0 size=    4204kB time=00:00:13.41 bitrate=2566.7kbits/s speed=0.048x    frame=  405 fps=1.4 q=42.0 size=    4204kB time=00:00:13.62 bitrate=2527.6kbits/s speed=0.0485x    frame=  407 fps=1.4 q=42.0 size=    4204kB time=00:00:13.70 bitrate=2512.3kbits/s speed=0.0486x    frame=  409 fps=1.4 q=42.0 size=    4204kB time=00:00:13.79 bitrate=2497.0kbits/s speed=0.0488x    frame=  412 fps=1.5 q=42.0 size=    4204kB time=00:00:13.91 bitrate=2474.5kbits/s speed=0.0491x    frame=  413 fps=1.5 q=42.0 size=    4204kB time=00:00:13.95 bitrate=2467.3kbits/s speed=0.0491x    frame=  414 fps=1.5 q=42.0 size=    4204kB time=00:00:14.00 bitrate=2459.9kbits/s speed=0.0491x    frame=  419 fps=1.5 q=41.0 size=    4204kB time=00:00:14.20 bitrate=2423.9kbits/s speed=0.0496x    frame=  420 fps=1.5 q=41.0 size=    4204kB time=00:00:14.25 bitrate=2416.7kbits/s speed=0.0495x    frame=  425 fps=1.5 q=41.0 size=    4204kB time=00:00:14.45 bitrate=2381.9kbits/s speed=0.0501x    frame=  426 fps=1.5 q=41.0 size=    4204kB time=00:00:14.50 bitrate=2375.0kbits/s speed=0.0499x    frame=  431 fps=1.5 q=41.0 size=    4204kB time=00:00:14.70 bitrate=2341.5kbits/s speed=0.0503x    frame=  432 fps=1.5 q=41.0 size=    4204kB time=00:00:14.75 bitrate=2334.8kbits/s speed=0.0504x    frame=  434 fps=1.5 q=41.0 size=    4204kB time=00:00:14.83 bitrate=2321.7kbits/s speed=0.0506x    frame=  437 fps=1.5 q=40.0 size=    4204kB time=00:00:14.95 bitrate=2302.3kbits/s speed=0.0508x    frame=  439 fps=1.5 q=40.0 size=    4204kB time=00:00:15.04 bitrate=2289.5kbits/s speed=0.0503x    frame=  441 fps=1.5 q=40.0 size=    4204kB time=00:00:15.12 bitrate=2276.9kbits/s speed=0.0504x    frame=  445 fps=1.5 q=40.0 size=    5425kB time=00:00:15.29 bitrate=2905.8kbits/s speed=0.0506x    frame=  446 fps=1.5 q=40.0 size=    5425kB time=00:00:15.33 bitrate=2898.1kbits/s speed=0.0506x    frame=  448 fps=1.5 q=40.0 size=    5425kB time=00:00:15.41 bitrate=2882.3kbits/s speed=0.0507x    frame=  449 fps=1.5 q=40.0 size=    5425kB time=00:00:15.45 bitrate=2874.6kbits/s speed=0.0507x    frame=  451 fps=1.5 q=40.0 size=    5425kB time=00:00:15.54 bitrate=2859.1kbits/s speed=0.0509x    frame=  452 fps=1.5 q=40.0 size=    5425kB time=00:00:15.58 bitrate=2851.6kbits/s speed=0.0507x    frame=  453 fps=1.5 q=40.0 size=    5425kB time=00:00:15.62 bitrate=2843.9kbits/s speed=0.0507x    frame=  455 fps=1.5 q=40.0 size=    5425kB time=00:00:15.70 bitrate=2828.9kbits/s speed=0.0508x    frame=  456 fps=1.5 q=40.0 size=    5425kB time=00:00:15.75 bitrate=2821.3kbits/s speed=0.0509x    frame=  457 fps=1.5 q=40.0 size=    5425kB time=00:00:15.79 bitrate=2813.8kbits/s speed=0.0509x    frame=  459 fps=1.5 q=40.0 size=    5425kB time=00:00:15.87 bitrate=2799.1kbits/s speed=0.0509x    frame=  460 fps=1.5 q=40.0 size=    5425kB time=00:00:15.91 bitrate=2791.7kbits/s speed=0.0509x    frame=  461 fps=1.5 q=40.0 size=    5425kB time=00:00:15.95 bitrate=2784.6kbits/s speed=0.051x    frame=  464 fps=1.5 q=40.0 size=    5425kB time=00:00:16.08 bitrate=2762.9kbits/s speed=0.051x    frame=  465 fps=1.5 q=40.0 size=    5425kB time=00:00:16.12 bitrate=2755.7kbits/s speed=0.0511x    frame=  467 fps=1.5 q=40.0 size=    5425kB time=00:00:16.20 bitrate=2741.6kbits/s speed=0.0513x    frame=  468 fps=1.5 q=40.0 size=    5425kB time=00:00:16.25 bitrate=2734.5kbits/s speed=0.0511x    frame=  470 fps=1.5 q=40.0 size=    5425kB time=00:00:16.33 bitrate=2720.6kbits/s speed=0.0512x    frame=  471 fps=1.5 q=40.0 size=    5425kB time=00:00:16.37 bitrate=2713.7kbits/s speed=0.0511x    frame=  473 fps=1.5 q=40.0 size=    5425kB time=00:00:16.45 bitrate=2700.0kbits/s speed=0.0512x    frame=  476 fps=1.5 q=40.0 size=    5425kB time=00:00:16.58 bitrate=2679.6kbits/s speed=0.0511x    frame=  478 fps=1.5 q=40.0 size=    5425kB time=00:00:16.66 bitrate=2666.1kbits/s speed=0.0513x    frame=  482 fps=1.5 q=40.0 size=    5425kB time=00:00:16.83 bitrate=2639.8kbits/s speed=0.0513x    frame=  484 fps=1.5 q=40.0 size=    5425kB time=00:00:16.91 bitrate=2626.7kbits/s speed=0.0515x    frame=  485 fps=1.5 q=40.0 size=    5425kB time=00:00:16.95 bitrate=2620.4kbits/s speed=0.0514x    frame=  486 fps=1.5 q=40.0 size=    5425kB time=00:00:17.00 bitrate=2613.9kbits/s speed=0.0514x    frame=  489 fps=1.5 q=40.0 size=    5425kB time=00:00:17.12 bitrate=2594.8kbits/s speed=0.0516x    frame=  490 fps=1.5 q=40.0 size=    5425kB time=00:00:17.16 bitrate=2588.5kbits/s speed=0.0515x    frame=  494 fps=1.5 q=40.0 size=    5425kB time=00:00:17.33 bitrate=2563.7kbits/s speed=0.0513x    frame=  497 fps=1.5 q=40.0 size=    5425kB time=00:00:17.45 bitrate=2545.3kbits/s speed=0.0515x    frame=  499 fps=1.5 q=40.0 size=    5425kB time=00:00:17.54 bitrate=2533.1kbits/s speed=0.0516x    frame=  500 fps=1.5 q=40.0 size=    5425kB time=00:00:17.58 bitrate=2527.2kbits/s speed=0.0516x    frame=  500 fps=1.3 q=-1.0 Lsize=    7302kB time=00:00:20.70 bitrate=2888.6kbits/s speed=0.0548x    
video:7298kB audio:0kB subtitle:0kB other streams:0kB global headers:0kB muxing overhead: 0.060993%
bench: utime=1406.300s
bench: maxrss=2788544kB
[libx264 @ 0x2bd51c0] frame I:3     Avg QP:35.09  size: 79671
[libx264 @ 0x2bd51c0] frame P:268   Avg QP:41.92  size: 19303
[libx264 @ 0x2bd51c0] frame B:229   Avg QP:41.98  size:  8996
[libx264 @ 0x2bd51c0] consecutive B-frames: 36.2%  7.6% 18.0% 17.6% 11.0%  9.6%  0.0%  0.0%  0.0%
[libx264 @ 0x2bd51c0] mb I  I16..4: 22.5% 76.1%  1.5%
[libx264 @ 0x2bd51c0] mb P  I16..4:  9.8% 33.7%  0.0%  P16..4: 13.6%  0.4%  0.4%  0.0%  0.0%    skip:42.1%
[libx264 @ 0x2bd51c0] mb B  I16..4:  0.5%  0.9%  0.0%  B16..8: 22.8%  0.7%  0.1%  direct: 0.1%  skip:74.9%  L0:40.3% L1:59.2% BI: 0.5%
[libx264 @ 0x2bd51c0] final ratefactor: 37.54
[libx264 @ 0x2bd51c0] 8x8 transform intra:77.0% inter:93.2%
[libx264 @ 0x2bd51c0] direct mvs  spatial:99.1% temporal:0.9%
[libx264 @ 0x2bd51c0] coded y,uvDC,uvAC intra: 6.1% 10.4% 0.1% inter: 0.7% 0.7% 0.0%
[libx264 @ 0x2bd51c0] i16 v,h,dc,p: 29% 34%  6% 31%
[libx264 @ 0x2bd51c0] i8 v,h,dc,ddl,ddr,vr,hd,vl,hu: 21%  8% 66%  1%  1%  1%  1%  1%  1%
[libx264 @ 0x2bd51c0] i4 v,h,dc,ddl,ddr,vr,hd,vl,hu: 16% 16% 12%  9% 10% 10% 11%  6% 10%
[libx264 @ 0x2bd51c0] i8c dc,h,v,p: 92%  6%  2%  0%
[libx264 @ 0x2bd51c0] Weighted P-Frames: Y:1.5% UV:1.1%
[libx264 @ 0x2bd51c0] ref P L0: 51.6%  7.3% 15.3%  5.1%  3.9%  3.3%  3.3%  1.6%  1.6%  1.4%  1.3%  1.1%  1.0%  0.9%  0.9%  0.5%
[libx264 @ 0x2bd51c0] ref B L0: 84.2%  6.6%  3.2%  1.2%  1.0%  0.8%  0.7%  0.4%  0.4%  0.3%  0.3%  0.3%  0.2%  0.2%  0.1%
[libx264 @ 0x2bd51c0] ref B L1: 98.1%  1.9%
[libx264 @ 0x2bd51c0] kb/s:2869.38
